<svg xmlns="http://www.w3.org/2000/svg" xmlns:xlink="http://www.w3.org/1999/xlink" viewBox="0 0 105.456 56.474" version="1.1">
	<title>Curia - Logo - Full</title>
  <defs>
    <style>
      .a {
        fill: #fff;
      }
      .a, .b, .c {
        fill-rule: evenodd;
      }
      .c {
        fill:#a44fa6;
      }
      .d {
        mask: url(#a);
      }
    </style>
    <mask id="a" x="84.183" y="28.463" width="21.272" height="27.921" maskUnits="userSpaceOnUse">
      <g transform="translate(0 -0.879)">
        <polygon class="a" points="84.183 29.341 105.455 29.341 105.455 57.263 84.183 57.263 84.183 29.341"></polygon>
      </g>
    </mask>
  </defs>
  <polygon class="b" points="72.863 56.003 79.068 56.003 79.068 30.316 72.863 30.316 72.863 56.003"></polygon>
  <path class="b" d="M25.98,48.352V30.374h5.794V47.821a4.652,4.652,0,0,0,4.879,4.806,4.7,4.7,0,0,0,4.8-4.806V30.374h5.793V48.937c0,5.14-4.321,8.375-10.588,8.375-6.9,0-10.673-2.845-10.673-8.96" transform="translate(0 -0.879)"></path>
  <path class="b" d="M61.123,29.415a18.146,18.146,0,0,1,7.32,1.331l-1.328,4.235c-1.07-.476-3.923-1.226-5.557-.589-1.552.6-2.756,1.641-2.756,4.553V56.881H52.678V38.839c0-4.765,1.555-9.411,8.445-9.424" transform="translate(0 -0.879)"></path>
  <path class="b" d="M0,43.377C0,32.735,6.38,29.135,11.791,29.135a10.36,10.36,0,0,1,9.391,5.03l-3.828,3.282c-1.48-2.065-3.164-3.282-5.359-3.282-3.522,0-5.922,2.859-5.922,8.947,0,5.5,1.94,9.212,6.483,9.212a9.274,9.274,0,0,0,5.87-2.225l2.3,4.237a13.771,13.771,0,0,1-8.881,3.017C4.339,57.353,0,52.324,0,43.377" transform="translate(0 -0.879)"></path>
  <path class="c" d="M90.617,16.142a8.34,8.34,0,0,1-1.13-1.633,1.506,1.506,0,0,1-.161-.6,3.423,3.423,0,0,0,.309-1.419,3.345,3.345,0,1,0-6.69,0,3.184,3.184,0,0,0,.126.922,1.174,1.174,0,0,1-.174.9,8.538,8.538,0,0,1-1.348,1.534,6.827,6.827,0,0,1-2.624,1.614,3.45,3.45,0,0,1-.974.057c-.463-.047-1.269-.258-1.329-.264a4.69,4.69,0,0,0-2.6.367A.151.151,0,0,0,74,17.6a12.862,12.862,0,0,1-1.838-1.714,9.944,9.944,0,0,1-2.277-3.8,5.139,5.139,0,0,1-.077-1.406c.065-.674.361-1.839.371-1.923A6.911,6.911,0,0,0,68.5,3.163a6.776,6.776,0,0,0-9.641-.513l-.02.011a6.993,6.993,0,0,0-.477,9.775A6.7,6.7,0,0,0,63.676,14.7a10.423,10.423,0,0,0,1.437-.186,3.368,3.368,0,0,1,1.706.166c.078.031.358.151.465.2a7.733,7.733,0,0,1,1.5.935c.042.034,1.4,1.3,1.649,1.581h0a12.546,12.546,0,0,1,1.5,2.044,4.9,4.9,0,0,0,.473,5.839l.007.014a4.746,4.746,0,0,0,6.754.34,4.814,4.814,0,0,0,1.564-3.77,7.81,7.81,0,0,0-.129-1.02,2.448,2.448,0,0,1,.113-1.21c.021-.054.106-.253.139-.329a7.286,7.286,0,0,1,1.762-2.262A8.181,8.181,0,0,1,84.3,15.813a1.209,1.209,0,0,1,.894-.125,3.045,3.045,0,0,0,1.093.188,3.294,3.294,0,0,0,1.091-.188,1.285,1.285,0,0,1,.609.239,8.37,8.37,0,0,1,1.443,1.3,2.337,2.337,0,1,0,2.084-1.266A2.278,2.278,0,0,0,90.617,16.142Z" transform="translate(0 -0.879)"></path>
  <g class="d">
    <path class="b" d="M99.174,53.18a15.187,15.187,0,0,1-3.644.4c-5.259,0-5.273-3.591-5.337-4.715s.392-4.65,5.337-4.65a15.177,15.177,0,0,1,3.644.4Zm5.872-19.235c-1.08-3.173-4.256-4.6-9.03-4.6a32.918,32.918,0,0,0-10.328,1.872l1.245,4.523a27.01,27.01,0,0,1,8.111-1.716c2.337,0,4.039.835,4.13,3.267v3.535a35.241,35.241,0,0,0-4.293-.25c-6.092,0-10.7,1.957-10.7,8.289,0,6.042,4.463,8.354,10.7,8.4a35.15,35.15,0,0,0,10.554-1.225c-.051-3.56-.108-14.4.017-19.078A8.62,8.62,0,0,0,105.046,33.945Z" transform="translate(0 -0.879)"></path>
  </g>
</svg>